<svg xmlns="http://www.w3.org/2000/svg" viewBox="16 16 992 992" width="992" height="992">
  <!-- Generated by tools/icon.py - do not edit. The app icon as a vector: the same paths as
       icon.ico, icon.icns and icon.png; the check is cut out of the folder (even-odd). -->
  <defs>
    <linearGradient id="plate" x1="16" y1="16" x2="1008" y2="1008" gradientUnits="userSpaceOnUse">
      <stop offset="0" stop-color="#E67A5C"/>
      <stop offset="1" stop-color="#E67A5C"/>
    </linearGradient>
  </defs>
  <path fill="url(#plate)" d="M355.36 16L668.64 16C766.35 16 815.21 16 867.81 32.63C925.23 53.53 970.47 98.77 991.37 156.19C1008 208.79 1008 257.65 1008 355.36L1008 668.64C1008 766.35 1008 815.21 991.37 867.81C970.47 925.23 925.23 970.47 867.81 991.37C815.21 1008 766.35 1008 668.64 1008L355.36 1008C257.65 1008 208.79 1008 156.19 991.37C98.77 970.47 53.53 925.23 32.63 867.81C16 815.21 16 766.35 16 668.64L16 355.36C16 257.65 16 208.79 32.63 156.19C53.53 98.77 98.77 53.53 156.19 32.63C208.79 16 257.65 16 355.36 16Z"/>
  <path fill="#FFFFFF" fill-rule="evenodd" d="M291.4 216L396.42 216A69 69 0 0 1 445.21 236.21L478.79 269.79A69 69 0 0 0 527.58 290L732.6 290C771.24 290 790.57 290 805.33 297.52A69 69 0 0 1 835.48 327.67C843 342.43 843 361.76 843 400.4L843 657.6C843 696.24 843 715.57 835.48 730.33A69 69 0 0 1 805.33 760.48C790.57 768 771.24 768 732.6 768L291.4 768C252.76 768 233.43 768 218.67 760.48A69 69 0 0 1 188.52 730.33C181 715.57 181 696.24 181 657.6L181 326.4C181 287.76 181 268.43 188.52 253.67A69 69 0 0 1 218.67 223.52C233.43 216 252.76 216 291.4 216ZM390.34 484.66L467 561.31L635.66 392.66A41.5 41.5 0 0 1 694.34 451.34L496.34 649.34A41.5 41.5 0 0 1 437.66 649.34L331.66 543.34A41.5 41.5 0 0 1 390.34 484.66Z"/>
</svg>
